<svg width="32" height="32" viewBox="0 0 32 32" fill="none" xmlns="http://www.w3.org/2000/svg">
<rect width="32" height="32" fill="#FBFAF7"/>
<path d="M17.4102 7.2H22.7142V7.896C22.3942 8.04 22.0822 8.16 21.7782 8.256C21.4742 8.352 21.1782 8.432 20.8902 8.496L16.0662 14.88C16.4662 15.408 16.9222 16 17.4342 16.656C17.9622 17.312 18.5062 17.992 19.0662 18.696C19.6422 19.384 20.2262 20.088 20.8182 20.808C21.4262 21.512 22.0182 22.184 22.5942 22.824L23.7462 23.4V24H20.7462L19.9302 23.424C18.9862 22.32 18.0422 21.128 17.0982 19.848C16.1702 18.568 15.2662 17.272 14.3862 15.96H13.2102V22.728C13.9462 22.856 14.5462 23.048 15.0102 23.304V24H8.93819V23.304C9.57819 23.048 10.2342 22.856 10.9062 22.728V8.496C10.1862 8.4 9.53019 8.2 8.93819 7.896V7.2H15.0102V7.896C14.7542 8.008 14.4742 8.12 14.1702 8.232C13.8662 8.328 13.5462 8.416 13.2102 8.496V15.144L14.6502 14.808L19.1382 8.496C18.8182 8.416 18.5142 8.328 18.2262 8.232C17.9382 8.136 17.6662 8.024 17.4102 7.896V7.2Z" fill="#221E20"/>
</svg>
