<svg width="437" height="312" viewBox="0 0 437 312" fill="none" xmlns="http://www.w3.org/2000/svg">
<path d="M167.814 16.3321C165.57 14.6426 163.326 14.6426 161.081 14.6426C147.615 14.6426 124.049 30.4115 113.949 38.8592C99.3607 51.2491 85.8944 64.7653 71.867 78.2816L39.3235 110.383C33.1514 116.578 23.6128 124.462 14.6353 124.462C8.46321 124.462 2.85224 119.957 1.16895 111.509C-1.63653 96.8665 0.607845 83.3501 7.90209 70.9603C9.58538 68.1444 11.8298 66.4548 13.5131 64.7653C15.7574 63.0759 18.0018 63.0759 20.2462 63.0759C23.6128 63.639 25.2961 66.4548 23.6128 69.2707C21.9295 70.9603 20.2462 72.6498 19.124 74.9025C13.5131 85.0397 11.2687 96.3033 11.8298 108.693C12.3909 111.509 13.5131 112.635 15.7574 112.635C16.3185 112.635 18.0018 112.072 19.124 111.509C30.907 103.061 41.0067 92.3611 50.5454 82.2238C67.3783 64.7653 84.2112 47.87 101.605 32.1011C113.388 21.4007 126.854 12.3899 140.882 5.06859C145.371 3.37909 149.859 1.68954 154.348 0.56317C156.593 0 158.837 0 161.081 0C181.281 0 195.869 21.4007 192.503 38.296C189.136 51.8122 186.331 64.7653 179.597 76.592C172.864 88.982 165.009 100.809 157.715 112.635C137.515 144.173 116.194 175.148 99.3607 208.375C88.6999 229.213 78.6002 251.74 73.5503 274.83C72.4281 280.462 71.8671 286.094 73.5503 291.162C75.2336 296.794 78.0391 299.047 83.65 299.61C104.972 299.61 124.61 284.404 139.199 270.325C155.47 255.119 168.937 237.661 182.403 220.765L204.847 193.733C206.53 190.917 209.336 189.227 212.141 189.227L214.385 189.791C217.752 190.917 219.435 193.733 217.191 195.986C208.774 207.249 200.358 218.513 191.942 229.213C170.059 256.245 125.171 312 88.1388 312C66.8172 312 47.7399 295.105 45.4955 273.704C43.8122 257.372 46.6177 241.04 52.7898 225.834C61.7673 204.433 71.3059 184.159 83.65 164.448C102.166 134.036 121.805 104.751 140.882 74.3393C152.665 55.7545 161.081 37.1696 167.814 16.3321ZM364.386 193.733C374.486 195.422 384.586 197.112 394.124 197.112C404.224 197.112 414.324 195.422 423.862 192.043C426.668 190.917 430.034 190.354 433.401 189.791C433.962 189.227 435.645 190.354 436.206 191.48C436.768 192.607 437.329 194.296 436.768 195.422C435.645 197.112 434.523 198.801 432.84 199.365C425.546 203.307 417.69 206.123 409.274 206.686H397.491C389.636 206.686 381.78 206.686 373.925 204.996L369.997 204.433C363.825 203.87 360.458 203.307 357.653 203.307C352.603 203.307 352.603 205.56 345.87 214.57C317.254 257.935 275.172 305.805 220.185 311.437C218.501 311.437 216.818 312 214.574 312C197.18 312 185.397 301.3 180.347 284.404C179.225 280.462 179.225 277.083 179.786 273.141C182.591 260.751 197.18 238.787 211.768 238.787C216.257 238.787 220.185 241.603 224.112 246.672C224.673 247.235 224.673 248.361 224.112 248.924C224.112 249.487 222.429 250.614 221.868 250.051C219.623 248.924 217.94 248.361 216.257 248.361C207.279 248.361 197.741 267.509 195.496 274.267C194.374 278.773 194.374 283.278 196.619 287.783C198.302 291.726 199.985 293.415 202.791 293.415C204.474 293.415 206.157 292.852 207.84 292.289C248.8 277.083 284.711 240.477 309.96 205.56C311.082 203.87 312.204 201.617 313.888 199.928C315.571 197.112 314.449 194.296 311.082 193.733C300.982 192.043 290.883 189.791 280.222 189.791C275.733 189.791 271.244 190.354 266.755 191.48L254.411 194.859C252.167 195.422 249.923 196.549 248.239 197.675C241.506 201.617 237.017 206.123 240.384 214.57C240.945 215.697 240.384 217.386 238.14 217.386C237.578 217.386 236.456 216.823 235.895 216.26C229.723 208.939 230.845 198.801 238.701 191.48C247.678 182.469 265.633 179.653 277.977 179.653C280.783 179.653 283.588 179.653 286.394 180.217L311.082 183.596C315.01 184.159 317.254 184.722 319.499 184.722C323.987 184.722 325.671 182.469 330.159 175.148C353.725 138.542 375.047 96.3033 384.586 54.0649C386.269 46.1805 386.269 38.296 385.708 30.4115C385.147 24.2166 381.219 20.2743 375.608 18.5848C371.68 16.8953 367.192 16.3321 362.703 16.3321C360.459 16.3321 358.214 16.3321 355.97 16.8953C309.399 25.3429 263.389 61.3862 236.456 98.556C231.406 105.314 228.04 112.072 226.357 119.957C224.673 126.152 228.04 130.657 233.651 130.657C234.212 130.657 235.334 130.094 236.456 130.094C251.045 127.278 262.267 119.394 271.805 108.693L278.539 101.372C279.1 100.809 280.222 100.246 280.783 100.246C281.905 100.246 283.027 100.809 283.588 101.372C285.272 101.935 286.394 103.625 286.394 105.877C284.149 122.773 261.145 137.978 245.995 140.794C243.751 141.357 240.945 141.921 238.701 141.921C230.845 141.921 224.112 138.542 218.501 131.783C213.451 125.588 211.768 118.83 214.012 110.946C216.257 104.188 219.062 98.556 222.429 92.9242C249.923 52.9386 285.833 24.7798 330.72 7.88448C339.698 5.06859 350.359 2.25271 359.897 2.25271C386.83 2.25271 408.152 21.4007 409.835 51.8122C410.957 66.4548 409.274 81.0974 405.346 95.1769C398.052 123.336 385.147 149.242 370.558 174.585C367.192 179.653 362.703 185.285 362.142 191.48L364.386 193.733Z" fill="white"/>
</svg>
