<svg width="1125" height="239" viewBox="0 0 1125 239" fill="none" xmlns="http://www.w3.org/2000/svg">
<path d="M11.1995 208.053V44.88C11.1995 37.5654 7.83965 31.376 0 30.8134V28H30.7986V30.8134C23.239 31.376 19.5991 37.8467 19.5991 44.5987V91.8627L69.9969 28H83.9963V30.8134C80.3564 31.376 66.0771 36.44 62.7172 40.9414L30.7986 81.4534C99.1156 125.341 73.0768 211.711 129.634 236.468L128.794 239C67.757 223.808 84.2763 128.155 29.3987 83.1413L19.5991 95.52V208.053C19.5991 215.649 22.959 221.276 30.7986 222.12V224.933H0V222.12C7.83965 221.276 11.1995 215.649 11.1995 208.053ZM197.091 30.8134V28H236.569C257.849 28.2814 275.208 41.2227 275.208 58.6654C275.208 77.796 260.088 95.52 237.689 95.52H216.69V208.053C216.69 215.931 219.49 221.276 227.61 222.12V224.933H196.811V222.12C204.931 221.276 208.291 215.931 208.291 208.053V44.5987V44.88C208.291 37.5654 204.931 31.376 197.091 30.8134ZM236.569 30.8134H216.69V92.7067H236.569C255.889 92.7067 267.088 78.3587 267.088 58.9467C267.368 44.3174 253.649 30.8134 236.569 30.8134ZM362.372 197.081L423.969 47.6934V44.88C423.969 37.284 420.889 31.376 413.05 30.8134V28H443.568V30.8134C435.729 31.376 432.649 37.0027 432.369 44.3174V208.053C432.369 215.649 436.009 221.276 443.568 222.12V224.933H412.77V222.12C420.889 221.557 423.969 215.931 423.969 208.053V56.1334L362.372 205.24V209.46C362.372 216.212 366.292 221.557 373.571 222.12V224.933H342.773V222.12C350.892 221.557 353.972 216.212 353.972 208.335V44.036C353.972 36.7214 350.612 31.376 343.053 30.8134V28H373.571V30.8134C365.732 31.376 362.372 37.284 362.372 44.88V197.081ZM570.219 28H601.297V30.8134C594.298 31.376 589.818 36.44 589.818 43.4734V222.12H606.897V236.187H603.817C602.977 228.591 597.657 224.933 590.378 224.933H522.621V44.88C522.621 37.284 519.261 31.6574 511.421 30.8134V28H542.22V30.8134C534.38 31.6574 531.02 37.284 531.02 44.88V222.12H581.418V43.7547C581.418 36.44 577.778 31.376 570.219 30.8134V28ZM685.248 208.053V44.88C685.248 37.5654 681.888 31.376 674.048 30.8134V28H704.847V30.8134C697.287 31.376 693.647 37.8467 693.647 44.5987V91.8627L744.045 28H758.044V30.8134C754.404 31.376 740.125 36.44 736.765 40.9414L704.847 81.4534C773.164 125.341 747.125 211.711 803.682 236.468L802.842 239C741.805 223.808 758.324 128.155 703.447 83.1413L693.647 95.52V208.053C693.647 215.649 697.007 221.276 704.847 222.12V224.933H674.048V222.12C681.888 221.276 685.248 215.649 685.248 208.053ZM875.153 197.081L936.75 47.6934V44.88C936.75 37.284 933.67 31.376 925.831 30.8134V28H956.35V30.8134C948.51 31.376 945.43 37.0027 945.15 44.3174V208.053C945.15 215.649 948.79 221.276 956.35 222.12V224.933H925.552V222.12C933.671 221.557 936.75 215.931 936.75 208.053V56.1334L875.153 205.24V209.46C875.153 216.212 879.073 221.557 886.353 222.12V224.933H855.554V222.12C863.674 221.557 866.753 216.212 866.753 208.335V44.036C866.753 36.7214 863.394 31.376 855.834 30.8134V28H886.353V30.8134C878.513 31.376 875.153 37.284 875.153 44.88V197.081ZM1043.8 197.081L1105.4 47.6934V44.88C1105.4 37.284 1102.32 31.376 1094.48 30.8134V28H1125V30.8134C1117.16 31.376 1114.08 37.0027 1113.8 44.3174V208.053C1113.8 215.649 1117.44 221.276 1125 222.12V224.933H1094.2V222.12C1102.32 221.557 1105.4 215.931 1105.4 208.053V56.1334L1043.8 205.24V209.46C1043.8 216.212 1047.72 221.557 1055 222.12V224.933H1024.2V222.12C1032.32 221.557 1035.4 216.212 1035.4 208.335V44.036C1035.4 36.7214 1032.04 31.376 1024.48 30.8134V28H1055V30.8134C1047.16 31.376 1043.8 37.284 1043.8 44.88V197.081Z" fill="#333333"/>
<path d="M1084.13 9.99407L1067.87 9.99407C1064.52 9.99407 1062.97 10.2642 1062.06 7.15792L1060 0.540222L1061.03 0.135053C1062.97 3.37638 1065.68 6.15006 1074.06 6.82534H1077.94C1086.32 6.15006 1088.9 3.37638 1090.97 0L1092 0.405168L1089.94 7.15792C1089.03 10.2642 1087.48 9.85902 1084.13 9.99407Z" fill="#333333"/>
</svg>
