<svg width="1125" height="211" viewBox="0 0 1125 211" fill="none" xmlns="http://www.w3.org/2000/svg">
<path d="M11.1995 180.053V16.88C11.1995 9.56536 7.83965 3.37602 0 2.81335V2.39422e-05H30.7986V2.81335C23.239 3.37602 19.5991 9.84669 19.5991 16.5987V63.8627L69.9969 2.39422e-05H83.9963V2.81335C80.3564 3.37602 66.0771 8.44003 62.7172 12.9414L30.7986 53.4534C99.1156 97.3414 73.0768 183.711 129.634 208.468L128.794 211C67.757 195.808 84.2763 100.155 29.3987 55.1413L19.5991 67.52V180.053C19.5991 187.649 22.959 193.276 30.7986 194.12V196.933H0V194.12C7.83965 193.276 11.1995 187.649 11.1995 180.053ZM197.091 2.81335V2.39422e-05H236.569C257.849 0.281357 275.208 13.2227 275.208 30.6654C275.208 49.796 260.088 67.52 237.689 67.52H216.69V180.053C216.69 187.931 219.49 193.276 227.61 194.12V196.933H196.811V194.12C204.931 193.276 208.291 187.931 208.291 180.053V16.5987V16.88C208.291 9.56536 204.931 3.37602 197.091 2.81335ZM236.569 2.81335H216.69V64.7067H236.569C255.889 64.7067 267.088 50.3587 267.088 30.9467C267.368 16.3174 253.649 2.81335 236.569 2.81335ZM362.372 169.081L423.969 19.6934V16.88C423.969 9.28403 420.889 3.37602 413.05 2.81335V2.39422e-05H443.568V2.81335C435.729 3.37602 432.649 9.00269 432.369 16.3174V180.053C432.369 187.649 436.009 193.276 443.568 194.12V196.933H412.77V194.12C420.889 193.557 423.969 187.931 423.969 180.053V28.1334L362.372 177.24V181.46C362.372 188.212 366.292 193.557 373.571 194.12V196.933H342.773V194.12C350.892 193.557 353.972 188.212 353.972 180.335V16.036C353.972 8.72136 350.612 3.37602 343.053 2.81335V2.39422e-05H373.571V2.81335C365.732 3.37602 362.372 9.28403 362.372 16.88V169.081ZM570.219 2.39422e-05H601.297V2.81335C594.298 3.37602 589.818 8.44003 589.818 15.4734V194.12H606.897V208.187H603.817C602.977 200.591 597.657 196.933 590.378 196.933H522.621V16.88C522.621 9.28403 519.261 3.65735 511.421 2.81335V2.39422e-05H542.22V2.81335C534.38 3.65735 531.02 9.28403 531.02 16.88V194.12H581.418V15.7547C581.418 8.44003 577.778 3.37602 570.219 2.81335V2.39422e-05ZM685.248 180.053V16.88C685.248 9.56536 681.888 3.37602 674.048 2.81335V2.39422e-05H704.847V2.81335C697.287 3.37602 693.647 9.84669 693.647 16.5987V63.8627L744.045 2.39422e-05H758.044V2.81335C754.404 3.37602 740.125 8.44003 736.765 12.9414L704.847 53.4534C773.164 97.3414 747.125 183.711 803.682 208.468L802.842 211C741.805 195.808 758.324 100.155 703.447 55.1413L693.647 67.52V180.053C693.647 187.649 697.007 193.276 704.847 194.12V196.933H674.048V194.12C681.888 193.276 685.248 187.649 685.248 180.053ZM875.153 169.081L936.75 19.6934V16.88C936.75 9.28403 933.67 3.37602 925.831 2.81335V2.39422e-05H956.35V2.81335C948.51 3.37602 945.43 9.00269 945.15 16.3174V180.053C945.15 187.649 948.79 193.276 956.35 194.12V196.933H925.552V194.12C933.671 193.557 936.75 187.931 936.75 180.053V28.1334L875.153 177.24V181.46C875.153 188.212 879.073 193.557 886.353 194.12V196.933H855.554V194.12C863.674 193.557 866.753 188.212 866.753 180.335V16.036C866.753 8.72136 863.394 3.37602 855.834 2.81335V2.39422e-05H886.353V2.81335C878.513 3.37602 875.153 9.28403 875.153 16.88V169.081ZM1043.8 169.081L1105.4 19.6934V16.88C1105.4 9.28403 1102.32 3.37602 1094.48 2.81335V2.39422e-05H1125V2.81335C1117.16 3.37602 1114.08 9.00269 1113.8 16.3174V180.053C1113.8 187.649 1117.44 193.276 1125 194.12V196.933H1094.2V194.12C1102.32 193.557 1105.4 187.931 1105.4 180.053V28.1334L1043.8 177.24V181.46C1043.8 188.212 1047.72 193.557 1055 194.12V196.933H1024.2V194.12C1032.32 193.557 1035.4 188.212 1035.4 180.335V16.036C1035.4 8.72136 1032.04 3.37602 1024.48 2.81335V2.39422e-05H1055V2.81335C1047.16 3.37602 1043.8 9.28403 1043.8 16.88V169.081Z" fill="#333333"/>
</svg>
